# Exported: AutoSave from NavalArt
v 1.5 -1.5 -1.5
v -1.5 -1.5 -1.5
v -1.5 -1.5 1.5
v 1.5 -1.5 1.5
v 1.500001 1.5 -1.499999
v 1.499999 1.5 1.500001
v -1.500001 1.5 1.499999
v -1.5 1.5 -1.5
v 1.5 -1.5 -1.5
v 1.5 -1.5 1.5
v 1.499999 1.5 1.500001
v 1.500001 1.5 -1.499999
v 1.5 -1.5 1.5
v -1.5 -1.5 1.5
v -1.500001 1.5 1.499999
v 1.499999 1.5 1.500001
v -1.5 -1.5 1.5
v -1.5 -1.5 -1.5
v -1.5 1.5 -1.5
v -1.500001 1.5 1.499999
v 1.500001 1.5 -1.499999
v -1.5 1.5 -1.5
v -1.5 -1.5 -1.5
v 1.5 -1.5 -1.5
vn 0 -0.5773503 0
vn 0 -0.5773503 0
vn 0 -0.5773503 0
vn 0 -0.5773503 0
vn 0 0.5773503 0
vn 0 0.5773503 0
vn 0 0.5773503 0
vn 0 0.5773503 0
vn 0.5773503 0 0
vn 0.5773503 0 0
vn 0.5773503 0 0
vn 0.5773503 0 0
vn 0 0 0.5773503
vn 0 0 0.5773503
vn 0 0 0.5773503
vn 0 0 0.5773503
vn -0.5773503 0 0
vn -0.5773503 0 0
vn -0.5773503 0 0
vn -0.5773503 0 0
vn 0 0 -0.5773503
vn 0 0 -0.5773503
vn 0 0 -0.5773503
vn 0 0 -0.5773503
vt 0.110814 0.2215512
vt 0.01654605 0.2215512
vt 0.01654597 0.1272832
vt 0.110814 0.1272831
vt 0.110814 0.2215511
vt 0.1108139 0.1272831
vt 0.01654597 0.1272832
vt 0.01654597 0.2215512
vt 0.110814 0.1272831
vt 0.01654597 0.1272831
vt 0.01654597 0.2215512
vt 0.1108139 0.2215512
vt 0.110814 0.1272831
vt 0.01654597 0.1272831
vt 0.01654597 0.2215512
vt 0.1108139 0.2215512
vt 0.01654605 0.1272831
vt 0.110814 0.1272831
vt 0.110814 0.2215512
vt 0.01654605 0.2215512
vt 0.110814 0.2215512
vt 0.01654597 0.2215512
vt 0.01654605 0.1272831
vt 0.110814 0.1272831
usemtl DockMat (Instance)
f 3/3/3 2/2/2 1/1/1
f 4/4/4 3/3/3 1/1/1
f 7/7/7 6/6/6 5/5/5
f 8/8/8 7/7/7 5/5/5
f 11/11/11 10/10/10 9/9/9
f 12/12/12 11/11/11 9/9/9
f 15/15/15 14/14/14 13/13/13
f 16/16/16 15/15/15 13/13/13
f 19/19/19 18/18/18 17/17/17
f 20/20/20 19/19/19 17/17/17
f 23/23/23 22/22/22 21/21/21
f 24/24/24 23/23/23 21/21/21
